Coordinates
version=1
nRows=27
nColumns=38
inDegrees=no

Units are S.I. units (second, meters, Newtons, ...)
If the header above contains a line with 'inDegrees', this indicates whether rotational values are in degrees (yes) or radians (no).

endheader
time	pelvis_tilt	pelvis_list	pelvis_rotation	pelvis_tx	pelvis_ty	pelvis_tz	hip_flexion_r	hip_adduction_r	hip_rotation_r	knee_angle_r	ankle_angle_r	subtalar_angle_r	mtp_angle_r	hip_flexion_l	hip_adduction_l	hip_rotation_l	knee_angle_l	ankle_angle_l	subtalar_angle_l	mtp_angle_l	lumbar_extension	lumbar_bending	lumbar_rotation	arm_flex_r	arm_add_r	arm_rot_r	elbow_flex_r	pro_sup_r	wrist_flex_r	wrist_dev_r	arm_flex_l	arm_add_l	arm_rot_l	elbow_flex_l	pro_sup_l	wrist_flex_l	wrist_dev_l
1.62	0.499773	1.46028	-2.12561	0.735359	0.22399	0.905081	-0.333737	-0.11304	-0.352005	0.387148	0.319673	0	0	0.326663	0.000785482	-0.26042	0.21501	0.0404687	0	0	-0.21501	-0.0707361	0.0203849	0.0734196	-0.341048	0.24901	0.815656	1.42726	0	0	-0.141546	-0.296829	0.591219	0.697921	0.949039	0	0
1.63	0.527239	1.45672	-2.15797	0.736733	0.211344	0.904875	-0.334969	-0.127011	-0.346977	0.412888	0.305844	0	0	0.326425	0.00370376	-0.271443	0.237427	0.0157245	0	0	-0.212211	-0.0787033	0.0237231	0.0677026	-0.33743	0.252424	0.801411	1.42497	0	0	-0.141117	-0.297893	0.587037	0.696499	0.946727	0	0
1.64	0.557664	1.45231	-2.19248	0.738292	0.198611	0.905	-0.334055	-0.142733	-0.342628	0.44277	0.2873	0	0	0.326379	0.00586594	-0.285611	0.26413	-0.00232546	0	0	-0.209719	-0.0874834	0.0260589	0.0616393	-0.333812	0.256784	0.78661	1.42199	0	0	-0.140621	-0.299278	0.582433	0.695295	0.944857	0	0
1.65	0.584219	1.44814	-2.2221	0.739951	0.185723	0.905353	-0.330456	-0.158558	-0.337992	0.476579	0.262159	0	0	0.329269	0.00558967	-0.302004	0.300161	-0.00852599	0	0	-0.206762	-0.0957646	0.0274419	0.0549748	-0.330209	0.262358	0.771446	1.41802	0	0	-0.140348	-0.301174	0.577296	0.694673	0.942264	0	0
1.66	0.603091	1.44519	-2.2428	0.741748	0.17271	0.905908	-0.323103	-0.17335	-0.332244	0.514732	0.229187	0	0	0.334311	0.00367038	-0.314522	0.341331	-0.00696262	0	0	-0.202826	-0.10226	0.0278139	0.0479299	-0.327119	0.270274	0.755972	1.41146	0	0	-0.139838	-0.303451	0.573221	0.694248	0.937329	0	0
1.67	0.62218	1.44241	-2.26137	0.743909	0.159674	0.906736	-0.311726	-0.188844	-0.327734	0.558421	0.189074	0	0	0.337341	0.00456851	-0.318201	0.377655	-0.00312341	0	0	-0.198666	-0.108055	0.026085	0.0402354	-0.324565	0.279274	0.741365	1.40432	0	0	-0.138621	-0.306207	0.571365	0.693849	0.930998	0	0
1.68	0.652118	1.44139	-2.28913	0.746268	0.146786	0.907521	-0.291911	-0.206076	-0.324366	0.6109	0.141701	0	0	0.341091	0.00655798	-0.321184	0.410824	0.00461611	0	0	-0.192255	-0.11346	0.0227398	0.032358	-0.322149	0.289484	0.727069	1.3966	0	0	-0.137092	-0.309794	0.570545	0.693881	0.923864	0	0
1.69	0.690163	1.4427	-2.32445	0.748795	0.133893	0.908022	-0.264339	-0.223809	-0.319703	0.669396	0.0855207	0	0	0.347293	0.00541907	-0.333762	0.445716	0.017618	0	0	-0.182697	-0.117457	0.018992	0.0235125	-0.320843	0.301089	0.714607	1.38864	0	0	-0.13597	-0.313882	0.57111	0.695198	0.916008	0	0
1.7	0.744226	1.43773	-2.37446	0.751618	0.121524	0.909484	-0.239138	-0.243241	-0.305519	0.723047	0.0196921	0	0	0.331625	0.0262293	-0.314043	0.43492	0.0158893	0	0	-0.177921	-0.127225	0.0125397	0.0177853	-0.320826	0.324907	0.701878	1.34911	0	0	-0.132086	-0.319637	0.575757	0.697123	0.896168	0	0
1.71	0.805413	1.44132	-2.43192	0.754349	0.108728	0.909216	-0.199769	-0.265056	-0.30526	0.790493	-0.0414248	0	0	0.338896	0.0230106	-0.341617	0.465773	0.0343064	0	0	-0.163494	-0.13054	0.00803859	0.00666046	-0.320933	0.334683	0.694782	1.3509	0	0	-0.131769	-0.325755	0.577657	0.70272	0.892589	0	0
1.72	0.876025	1.44287	-2.49857	0.757039	0.0965097	0.909409	-0.160056	-0.283013	-0.292932	0.851824	-0.106422	0	0	0.335062	0.0323889	-0.345028	0.469594	0.0442869	0	0	-0.150677	-0.135686	0.00282544	-0.00229087	-0.320579	0.346819	0.686551	1.3504	0	0	-0.129444	-0.332891	0.581002	0.708687	0.887619	0	0
1.73	0.958608	1.43102	-2.57753	0.759622	0.0849063	0.910885	-0.125048	-0.316434	-0.287223	0.911905	-0.174608	0	0	0.300637	0.0771266	-0.292782	0.410971	0.0280049	0	0	-0.14588	-0.15379	-0.00435936	-0.00662985	-0.318212	0.36712	0.674717	1.3313	0	0	-0.124059	-0.344781	0.591995	0.718401	0.857176	0	0
1.74	0.971543	1.43688	-2.58751	0.762	0.0728717	0.910997	-0.0870239	-0.320075	-0.268244	0.965404	-0.234958	0	0	0.307782	0.0610944	-0.337421	0.452272	0.0531771	0	0	-0.136811	-0.149088	-0.00854117	-0.016115	-0.319683	0.373361	0.672042	1.34132	0	0	-0.121834	-0.350189	0.58952	0.725132	0.865323	0	0
1.75	0.979469	1.43579	-2.5934	0.764064	0.0615573	0.912216	-0.0519497	-0.327408	-0.247409	1.01443	-0.296897	0	0	0.294641	0.067223	-0.336523	0.453365	0.0647686	0	0	-0.134438	-0.15074	-0.0135367	-0.0214133	-0.319309	0.383733	0.666441	1.34159	0	0	-0.116713	-0.357762	0.589592	0.732416	0.861033	0	0
1.76	0.967657	1.42083	-2.58069	0.765932	0.0507447	0.915265	-0.0286615	-0.345073	-0.228036	1.05568	-0.353175	0	0	0.246679	0.107077	-0.274327	0.392314	0.0473273	0	0	-0.144739	-0.163881	-0.0203712	-0.0208502	-0.315482	0.396633	0.654153	1.34085	0	0	-0.108831	-0.367287	0.590663	0.739032	0.853794	0	0
1.77	0.923985	1.42756	-2.53493	0.76911	0.0395651	0.916306	0.00037906	-0.350256	-0.205581	1.09022	-0.366042	0	0	0.249501	0.0872581	-0.315755	0.43626	0.0715762	0	0	-0.144862	-0.151093	-0.0257296	-0.0256603	-0.318842	0.403725	0.650716	1.34289	0	0	-0.103351	-0.370679	0.589106	0.744877	0.85481	0	0
1.78	0.889645	1.42823	-2.50004	0.770654	0.0290088	0.918214	0.0291959	-0.348374	-0.185002	1.12884	-0.350761	0	0	0.232722	0.086198	-0.31475	0.437263	0.082022	0	0	-0.148613	-0.146941	-0.0308928	-0.0268994	-0.317493	0.411546	0.642991	1.34596	0	0	-0.096417	-0.376165	0.584268	0.748546	0.858411	0	0
1.79	0.845298	1.42298	-2.45389	0.77259	0.0185325	0.920847	0.0505041	-0.35165	-0.170054	1.16459	-0.309724	0	0	0.203142	0.0935824	-0.302378	0.419901	0.082744	0	0	-0.158269	-0.14599	-0.0392591	-0.025405	-0.314521	0.416957	0.631364	1.3594	0	0	-0.0907486	-0.37865	0.566532	0.748594	0.892917	0	0
1.8	0.810877	1.41598	-2.41816	0.773967	0.0083521	0.924044	0.0717406	-0.354985	-0.154623	1.19448	-0.269646	0	0	0.158324	0.114525	-0.252055	0.367283	0.0717876	0	0	-0.168688	-0.147529	-0.0463315	-0.0241589	-0.310231	0.421353	0.620384	1.36069	0	0	-0.0813576	-0.383882	0.560786	0.748266	0.895962	0	0
1.81	0.746863	1.42472	-2.35297	0.775997	-0.00185074	0.925432	0.100367	-0.341251	-0.142307	1.21957	-0.233917	0	0	0.15947	0.0891371	-0.299536	0.405535	0.0976095	0	0	-0.169353	-0.131018	-0.0523163	-0.0250868	-0.313492	0.432392	0.617227	1.35057	0	0	-0.0751912	-0.384288	0.550422	0.747627	0.90657	0	0
1.82	0.686887	1.41957	-2.29098	0.777979	-0.0119765	0.928541	0.116288	-0.338302	-0.132884	1.23532	-0.204298	0	0	0.122798	0.094576	-0.286126	0.376985	0.0942264	0	0	-0.18071	-0.125624	-0.0603123	-0.0244235	-0.309497	0.423098	0.60654	1.38521	0	0	-0.0673091	-0.385073	0.535694	0.744597	0.92718	0	0
1.83	0.640505	1.41532	-2.24313	0.779185	-0.0218588	0.931754	0.134329	-0.332613	-0.121662	1.24599	-0.178154	0	0	0.0775435	0.10857	-0.241886	0.322855	0.0820669	0	0	-0.189796	-0.121683	-0.0671772	-0.024117	-0.306264	0.424525	0.599085	1.384	0	0	-0.0578698	-0.390269	0.532917	0.744475	0.915818	0	0
1.84	0.586257	1.41627	-2.18698	0.780805	-0.0317425	0.934155	0.154339	-0.322279	-0.11396	1.2519	-0.151056	0	0	0.0518846	0.105464	-0.238154	0.305549	0.0837288	0	0	-0.194408	-0.111844	-0.074349	-0.0253379	-0.305333	0.422748	0.595194	1.39019	0	0	-0.0509754	-0.392395	0.522307	0.743755	0.921247	0	0
1.85	0.531123	1.42176	-2.128	0.783074	-0.0413231	0.935711	0.177385	-0.310464	-0.11124	1.25425	-0.121971	0	0	0.0460901	0.0896203	-0.267233	0.321909	0.098288	0	0	-0.194732	-0.0977717	-0.0838944	-0.026826	-0.308942	0.430535	0.597466	1.37148	0	0	-0.0464859	-0.391201	0.501072	0.742607	0.946368	0	0
1.86	0.487623	1.42042	-2.08204	0.784121	-0.0508213	0.938377	0.194061	-0.301281	-0.106883	1.24959	-0.0946465	0	0	0.00742628	0.0980248	-0.226293	0.272945	0.0843482	0	0	-0.200067	-0.0914755	-0.0917435	-0.0279793	-0.306815	0.430199	0.595581	1.36611	0	0	-0.0401821	-0.395408	0.488441	0.744705	0.948477	0	0
1.87	0.442725	1.42375	-2.03199	0.785725	-0.0601784	0.940171	0.213563	-0.291246	-0.108598	1.24143	-0.0673127	0	0	-0.010619	0.0932922	-0.219521	0.259768	0.0850344	0	0	-0.200788	-0.0813711	-0.10172	-0.0304837	-0.306721	0.429339	0.597358	1.36011	0	0	-0.034986	-0.398831	0.474963	0.748462	0.950109	0	0
1.88	0.399056	1.42718	-1.98196	0.787355	-0.0694482	0.941848	0.231866	-0.282185	-0.114092	1.22863	-0.0409334	0	0	-0.027781	0.0884677	-0.212152	0.246854	0.085651	0	0	-0.200922	-0.0714903	-0.112518	-0.0335167	-0.306497	0.427196	0.600216	1.35435	0	0	-0.0301782	-0.402677	0.461732	0.753181	0.951656	0	0
